<?xml version="1.0" encoding="UTF-8"?>
<svg width="300" height="80" viewBox="0 0 300 80" xmlns="http://www.w3.org/2000/svg">
    <defs>
        <!-- Gradientes -->
        <linearGradient id="primaryGradient" x1="0%" y1="0%" x2="100%" y2="100%">
            <stop offset="0%" style="stop-color:#3B82F6"/>
            <stop offset="100%" style="stop-color:#10B981"/>
        </linearGradient>
        <linearGradient id="textGradient" x1="0%" y1="0%" x2="100%" y2="0%">
            <stop offset="0%" style="stop-color:#1F2937"/>
            <stop offset="100%" style="stop-color:#374151"/>
        </linearGradient>
        <!-- Sombra do texto -->
        <filter id="textShadow">
            <feDropShadow dx="1" dy="1" stdDeviation="1" flood-opacity="0.3"/>
        </filter>
        <!-- Brilho do ícone -->
        <filter id="glow">
            <feGaussianBlur stdDeviation="2" result="coloredBlur"/>
            <feMerge>
                <feMergeNode in="coloredBlur"/>
                <feMergeNode in="SourceGraphic"/>
            </feMerge>
        </filter>
    </defs>

    <!-- Ícone Principal -->
    <g transform="translate(10,10)" filter="url(#glow)">
        <!-- Círculo de fundo -->
        <circle cx="30" cy="30" r="30" fill="url(#primaryGradient)"/>
        
        <!-- Símbolo de ferramentas estilizado -->
        <g transform="translate(15,15)" fill="#FFFFFF">
            <!-- Chave de boca estilizada -->
            <path d="M15,0 C6.716,0 0,6.716 0,15 C0,23.284 6.716,30 15,30 C23.284,30 30,23.284 30,15 C30,6.716 23.284,0 15,0 Z M15,25 C9.477,25 5,20.523 5,15 C5,9.477 9.477,5 15,5 C20.523,5 25,9.477 25,15 C25,20.523 20.523,25 15,25 Z" opacity="0.9"/>
            
            <!-- Símbolo de serviço -->
            <path d="M15,8 C11.134,8 8,11.134 8,15 C8,18.866 11.134,22 15,22 C18.866,22 22,18.866 22,15 C22,11.134 18.866,8 15,8 Z M15,19 C12.791,19 11,17.209 11,15 C11,12.791 12.791,11 15,11 C17.209,11 19,12.791 19,15 C19,17.209 17.209,19 15,19 Z" fill-opacity="0.95"/>
        </g>
    </g>

    <!-- Texto "SOS" -->
    <g transform="translate(80,15)">
        <text font-family="Arial Black, Arial" font-weight="900" font-size="40" fill="url(#primaryGradient)" filter="url(#textShadow)">
            <tspan x="0" y="40">SOS</tspan>
        </text>
    </g>

    <!-- Texto "SERVIÇOS" -->
    <g transform="translate(80,55)">
        <text font-family="Arial" font-weight="bold" font-size="20" fill="url(#textGradient)">
            <tspan x="0" y="0">SERVIÇOS</tspan>
        </text>
    </g>

    <!-- Elementos decorativos -->
    <g transform="translate(190,20)" fill="url(#primaryGradient)" opacity="0.8">
        <circle cx="5" cy="5" r="3"/>
        <circle cx="15" cy="5" r="3"/>
        <circle cx="25" cy="5" r="3"/>
    </g>
</svg>
