<?xml version="1.0" encoding="UTF-8"?>
<svg width="300" height="80" viewBox="0 0 300 80" xmlns="http://www.w3.org/2000/svg">
    <defs>
        <linearGradient id="primaryGradient" x1="0%" y1="0%" x2="100%" y2="100%">
            <stop offset="0%" style="stop-color:#3B82F6"/>
            <stop offset="100%" style="stop-color:#10B981"/>
        </linearGradient>
        <linearGradient id="textGradient" x1="0%" y1="0%" x2="100%" y2="0%">
            <stop offset="0%" style="stop-color:#1F2937"/>
            <stop offset="100%" style="stop-color:#374151"/>
        </linearGradient>
        <filter id="textShadow">
            <feDropShadow dx="1" dy="1" stdDeviation="1" flood-opacity="0.3"/>
        </filter>
        <filter id="glow">
            <feGaussianBlur stdDeviation="2" result="coloredBlur"/>
            <feMerge>
                <feMergeNode in="coloredBlur"/>
                <feMergeNode in="SourceGraphic"/>
            </feMerge>
        </filter>
    </defs>

    <!-- Ícone Principal com Ferramentas -->
    <g transform="translate(10,10)" filter="url(#glow)">
        <circle cx="30" cy="30" r="30" fill="url(#primaryGradient)"/>
        
        <!-- Conjunto de Ferramentas -->
        <g transform="translate(15,15)" fill="#FFFFFF">
            <!-- Chave de boca -->
            <path d="M10,5 L15,10 L13,12 L8,7 Z" stroke="#FFFFFF" stroke-width="1.5"/>
            
            <!-- Martelo -->
            <path d="M20,5 L25,10 L23,12 L18,7 Z"/>
            
            <!-- Pincel -->
            <path d="M8,20 L13,25 L11,27 L6,22 Z"/>
            
            <!-- Alicate -->
            <path d="M22,18 Q25,21 22,24 L19,21 Z"/>
            
            <!-- Engrenagem central -->
            <circle cx="15" cy="15" r="8" fill="none" stroke="#FFFFFF" stroke-width="1.5"/>
            <circle cx="15" cy="15" r="5" fill="#FFFFFF"/>
            
            <!-- Dentes da engrenagem -->
            <path d="M15,5 L17,7 L13,7 Z"/>
            <path d="M25,15 L23,17 L23,13 Z"/>
            <path d="M15,25 L13,23 L17,23 Z"/>
            <path d="M5,15 L7,13 L7,17 Z"/>
        </g>
    </g>

    <!-- Texto "SOS" -->
    <g transform="translate(80,15)">
        <text font-family="Arial Black, Arial" font-weight="900" font-size="40" fill="url(#primaryGradient)" filter="url(#textShadow)">
            <tspan x="0" y="40">SOS</tspan>
        </text>
    </g>

    <!-- Texto "SERVIÇOS" -->
    <g transform="translate(80,55)">
        <text font-family="Arial" font-weight="bold" font-size="20" fill="url(#textGradient)">
            <tspan x="0" y="0">SERVIÇOS</tspan>
        </text>
    </g>

    <!-- Ícones de diferentes serviços -->
    <g transform="translate(190,20)" fill="url(#primaryGradient)" opacity="0.8">
        <!-- Eletricidade -->
        <path d="M5,0 L7,3 L3,6 L5,9 L2,9 L0,6 L4,3 L2,0 Z"/>
        <!-- Hidráulica -->
        <path d="M15,0 C17,0 17,3 15,3 C13,3 13,0 15,0"/>
        <!-- Casa -->
        <path d="M25,0 L30,5 L28,5 L28,9 L22,9 L22,5 L20,5 Z" transform="scale(0.5)"/>
    </g>
</svg>
